REM DIRINDEX 1\2,1\3,1\4
REM DIRNAME folder01,folder02,folder03,folder04
TITLE ""
FILE "Track10.mp3" MP3
  TRACK 01 AUDIO
    TITLE "0:"
    INDEX 01 00:00:00
  TRACK 02 AUDIO
    TITLE "4:cjc153_0530"
    INDEX 01 00:00:05
  TRACK 03 AUDIO
    TITLE "0:"
    INDEX 01 00:01:44
  TRACK 04 AUDIO
    TITLE "2:cjc153_0531"
    INDEX 01 00:02:22
  TRACK 05 AUDIO
    TITLE "0:"
    INDEX 01 00:03:41
  TRACK 06 AUDIO
    TITLE "3:cjc153_0532"
    INDEX 01 00:03:66
  TRACK 07 AUDIO
    TITLE "0:"
    INDEX 01 00:05:14
  TRACK 08 AUDIO
    TITLE "2:cjc153_0533"
    INDEX 01 00:05:52
  TRACK 09 AUDIO
    TITLE "0:"
    INDEX 01 00:06:53
  TRACK 10 AUDIO
    TITLE "3:cjc153_0534"
    INDEX 01 00:07:03
  TRACK 11 AUDIO
    TITLE "0:"
    INDEX 01 00:08:11
  TRACK 12 AUDIO
    TITLE "2:cjc153_0535"
    INDEX 01 00:08:50
  TRACK 13 AUDIO
    TITLE "0:"
    INDEX 01 00:10:08
  TRACK 14 AUDIO
    TITLE "3:cjc153_0536"
    INDEX 01 00:10:33
  TRACK 15 AUDIO
    TITLE "0:"
    INDEX 01 00:11:64
  TRACK 16 AUDIO
    TITLE "2:cjc153_0537"
    INDEX 01 00:12:28
  TRACK 17 AUDIO
    TITLE "0:"
    INDEX 01 00:13:41
  TRACK 18 AUDIO
    TITLE "3:cjc153_0538"
    INDEX 01 00:13:67
  TRACK 19 AUDIO
    TITLE "0:"
    INDEX 01 00:15:05
  TRACK 20 AUDIO
    TITLE "2:cjc153_0539"
    INDEX 01 00:15:46
  TRACK 21 AUDIO
    TITLE "0:"
    INDEX 01 00:16:49
  TRACK 22 AUDIO
    TITLE "3:cjc153_0540"
    INDEX 01 00:16:71
  TRACK 23 AUDIO
    TITLE "0:"
    INDEX 01 00:18:01
  TRACK 24 AUDIO
    TITLE "2:cjc153_0541"
    INDEX 01 00:18:39
  TRACK 25 AUDIO
    TITLE "0:"
    INDEX 01 00:19:46
  TRACK 26 AUDIO
    TITLE "3:cjc153_0542"
    INDEX 01 00:19:73
  TRACK 27 AUDIO
    TITLE "0:"
    INDEX 01 00:21:09
  TRACK 28 AUDIO
    TITLE "2:cjc153_0543"
    INDEX 01 00:21:49
  TRACK 29 AUDIO
    TITLE "0:"
    INDEX 01 00:22:56
  TRACK 30 AUDIO
    TITLE "3:cjc153_0544"
    INDEX 01 00:23:08
  TRACK 31 AUDIO
    TITLE "0:"
    INDEX 01 00:24:20
  TRACK 32 AUDIO
    TITLE "2:cjc153_0545"
    INDEX 01 00:24:61
  TRACK 33 AUDIO
    TITLE "0:"
    INDEX 01 00:25:64
  TRACK 34 AUDIO
    TITLE "3:cjc153_0546"
    INDEX 01 00:26:17
  TRACK 35 AUDIO
    TITLE "0:"
    INDEX 01 00:27:22
  TRACK 36 AUDIO
    TITLE "2:cjc153_0547"
    INDEX 01 00:27:61
  TRACK 37 AUDIO
    TITLE "0:"
    INDEX 01 00:28:53
  TRACK 38 AUDIO
    TITLE "3:cjc153_0548"
    INDEX 01 00:29:03
  TRACK 39 AUDIO
    TITLE "0:"
    INDEX 01 00:30:05
  TRACK 40 AUDIO
    TITLE "2:cjc153_0549"
    INDEX 01 00:30:42
  TRACK 41 AUDIO
    TITLE "0:"
    INDEX 01 00:31:35
  TRACK 42 AUDIO
    TITLE "3:cjc153_0550"
    INDEX 01 00:31:59
  TRACK 43 AUDIO
    TITLE "0:"
    INDEX 01 00:32:60
  TRACK 44 AUDIO
    TITLE "2:cjc153_0551"
    INDEX 01 00:33:22
  TRACK 45 AUDIO
    TITLE "0:"
    INDEX 01 00:34:20
  TRACK 46 AUDIO
    TITLE "3:cjc153_0552"
    INDEX 01 00:34:43
  TRACK 47 AUDIO
    TITLE "0:"
    INDEX 01 00:35:37
  TRACK 48 AUDIO
    TITLE "2:cjc153_0553"
    INDEX 01 00:36:03
  TRACK 49 AUDIO
    TITLE "0:"
    INDEX 01 00:37:05
  TRACK 50 AUDIO
    TITLE "3:cjc153_0554"
    INDEX 01 00:37:30
  TRACK 51 AUDIO
    TITLE "0:"
    INDEX 01 00:38:31
  TRACK 52 AUDIO
    TITLE "2:cjc153_0555"
    INDEX 01 00:38:69
  TRACK 53 AUDIO
    TITLE "0:"
    INDEX 01 00:39:74
  TRACK 54 AUDIO
    TITLE "3:cjc153_0556"
    INDEX 01 00:40:24
  TRACK 55 AUDIO
    TITLE "0:"
    INDEX 01 00:41:32
  TRACK 56 AUDIO
    TITLE "2:cjc153_0557"
    INDEX 01 00:41:71
  TRACK 57 AUDIO
    TITLE "0:"
    INDEX 01 00:43:03
  TRACK 58 AUDIO
    TITLE "3:cjc153_0558"
    INDEX 01 00:43:31
  TRACK 59 AUDIO
    TITLE "0:"
    INDEX 01 00:44:40
  TRACK 60 AUDIO
    TITLE "2:cjc153_0559"
    INDEX 01 00:45:06
  TRACK 61 AUDIO
    TITLE "0:"
    INDEX 01 00:46:11
  TRACK 62 AUDIO
    TITLE "3:cjc153_0560"
    INDEX 01 00:46:37
  TRACK 63 AUDIO
    TITLE "0:"
    INDEX 01 00:47:42
  TRACK 64 AUDIO
    TITLE "2:cjc153_0561"
    INDEX 01 00:48:06
  TRACK 65 AUDIO
    TITLE "0:"
    INDEX 01 00:49:33
  TRACK 66 AUDIO
    TITLE "3:cjc153_0562"
    INDEX 01 00:49:59
  TRACK 67 AUDIO
    TITLE "0:"
    INDEX 01 00:51:11
  TRACK 68 AUDIO
    TITLE "2:cjc153_0563"
    INDEX 01 00:51:52
  TRACK 69 AUDIO
    TITLE "0:"
    INDEX 01 00:52:65
  TRACK 70 AUDIO
    TITLE "3:cjc153_0564"
    INDEX 01 00:53:13
  TRACK 71 AUDIO
    TITLE "0:"
    INDEX 01 00:54:32
  TRACK 72 AUDIO
    TITLE "2:cjc153_0565"
    INDEX 01 00:54:70
  TRACK 73 AUDIO
    TITLE "0:"
    INDEX 01 00:56:02
  TRACK 74 AUDIO
    TITLE "3:cjc153_0566"
    INDEX 01 00:56:27
  TRACK 75 AUDIO
    TITLE "0:"
    INDEX 01 00:57:37
  TRACK 76 AUDIO
    TITLE "2:cjc153_0567"
    INDEX 01 00:58:01
  TRACK 77 AUDIO
    TITLE "0:"
    INDEX 01 00:59:10
  TRACK 78 AUDIO
    TITLE "3:cjc153_0568"
    INDEX 01 00:59:36
  TRACK 79 AUDIO
    TITLE "0:"
    INDEX 01 01:00:53
  TRACK 80 AUDIO
    TITLE "2:cjc153_0569"
    INDEX 01 01:01:17
  TRACK 81 AUDIO
    TITLE "0:"
    INDEX 01 01:02:28
  TRACK 82 AUDIO
    TITLE "3:cjc153_0570"
    INDEX 01 01:02:54
  TRACK 83 AUDIO
    TITLE "0:"
    INDEX 01 01:04:00
  TRACK 84 AUDIO
    TITLE "2:cjc153_0571"
    INDEX 01 01:04:37
  TRACK 85 AUDIO
    TITLE "0:"
    INDEX 01 01:05:52
  TRACK 86 AUDIO
    TITLE "3:cjc153_0572"
    INDEX 01 01:06:04
  TRACK 87 AUDIO
    TITLE "0:"
    INDEX 01 01:07:25
  TRACK 88 AUDIO
    TITLE "2:cjc153_0573"
    INDEX 01 01:07:61
  TRACK 89 AUDIO
    TITLE "0:"
    INDEX 01 01:09:01
  TRACK 90 AUDIO
    TITLE "3:cjc153_0574"
    INDEX 01 01:09:28
  TRACK 91 AUDIO
    TITLE "0:"
    INDEX 01 01:10:49
  TRACK 92 AUDIO
    TITLE "2:cjc153_0575"
    INDEX 01 01:11:05
  TRACK 93 AUDIO
    TITLE "0:"
    INDEX 01 01:12:23
  TRACK 94 AUDIO
    TITLE "3:cjc153_0576"
    INDEX 01 01:12:50
  TRACK 95 AUDIO
    TITLE "0:"
    INDEX 01 01:13:65
  TRACK 96 AUDIO
    TITLE "2:cjc153_0577"
    INDEX 01 01:14:29
  TRACK 97 AUDIO
    TITLE "0:"
    INDEX 01 01:15:35
  TRACK 98 AUDIO
    TITLE "3:cjc153_0578"
    INDEX 01 01:15:62
  TRACK 99 AUDIO
    TITLE "0:"
    INDEX 01 01:16:73
  TRACK 100 AUDIO
    TITLE "2:cjc153_0579"
    INDEX 01 01:17:33
  TRACK 101 AUDIO
    TITLE "0:"
    INDEX 01 01:18:54
  TRACK 102 AUDIO
    TITLE "3:cjc153_0580"
    INDEX 01 01:19:03
  TRACK 103 AUDIO
    TITLE "0:"
    INDEX 01 01:20:22
  TRACK 104 AUDIO
    TITLE "2:cjc153_0581"
    INDEX 01 01:20:59
  TRACK 105 AUDIO
    TITLE "0:"
    INDEX 01 01:21:70
  TRACK 106 AUDIO
    TITLE "3:cjc153_0582"
    INDEX 01 01:22:17
  TRACK 107 AUDIO
    TITLE "0:"
    INDEX 01 01:23:32
  TRACK 108 AUDIO
    TITLE "2:cjc153_0583"
    INDEX 01 01:23:71
  TRACK 109 AUDIO
    TITLE "0:"
    INDEX 01 01:25:02
  TRACK 110 AUDIO
    TITLE "3:cjc153_0584"
    INDEX 01 01:25:27
  TRACK 111 AUDIO
    TITLE "0:"
    INDEX 01 01:26:44
  TRACK 112 AUDIO
    TITLE "2:cjc153_0585"
    INDEX 01 01:27:04
  TRACK 113 AUDIO
    TITLE "0:"
    INDEX 01 01:28:08
  TRACK 114 AUDIO
    TITLE "3:cjc153_0586"
    INDEX 01 01:28:35
  TRACK 115 AUDIO
    TITLE "0:"
    INDEX 01 01:29:41
  TRACK 116 AUDIO
    TITLE "2:cjc153_0587"
    INDEX 01 01:30:15
  TRACK 117 AUDIO
    TITLE "0:"
    INDEX 01 01:31:08
  TRACK 118 AUDIO
    TITLE "3:cjc153_0588"
    INDEX 01 01:31:45
  TRACK 119 AUDIO
    TITLE "0:"
    INDEX 01 01:32:41
  TRACK 120 AUDIO
    TITLE "2:cjc153_0589"
    INDEX 01 01:33:07
  TRACK 121 AUDIO
    TITLE "0:"
    INDEX 01 01:34:14
  TRACK 122 AUDIO
    TITLE "3:cjc153_0590"
    INDEX 01 01:34:40
  TRACK 123 AUDIO
    TITLE "0:"
    INDEX 01 01:35:49
  TRACK 124 AUDIO
    TITLE "2:cjc153_0591"
    INDEX 01 01:36:11
  TRACK 125 AUDIO
    TITLE "0:"
    INDEX 01 01:37:36
  TRACK 126 AUDIO
    TITLE "3:cjc153_0592"
    INDEX 01 01:37:62
  TRACK 127 AUDIO
    TITLE "0:"
    INDEX 01 01:39:15
  TRACK 128 AUDIO
    TITLE "2:cjc153_0593"
    INDEX 01 01:39:49
  TRACK 129 AUDIO
    TITLE "0:"
    INDEX 01 01:40:68
  TRACK 130 AUDIO
    TITLE "3:cjc153_0594"
    INDEX 01 01:41:16
  TRACK 131 AUDIO
    TITLE "0:"
    INDEX 01 01:42:39
  TRACK 132 AUDIO
    TITLE "2:cjc153_0595"
    INDEX 01 01:43:02
  TRACK 133 AUDIO
    TITLE "0:"
    INDEX 01 01:44:07
  TRACK 134 AUDIO
    TITLE "3:cjc153_0596"
    INDEX 01 01:44:34
  TRACK 135 AUDIO
    TITLE "0:"
    INDEX 01 01:45:49
  TRACK 136 AUDIO
    TITLE "2:cjc153_0597"
    INDEX 01 01:46:14
  TRACK 137 AUDIO
    TITLE "0:"
    INDEX 01 01:47:23
  TRACK 138 AUDIO
    TITLE "3:cjc153_0598"
    INDEX 01 01:47:48
  TRACK 139 AUDIO
    TITLE "0:"
    INDEX 01 01:48:61
  TRACK 140 AUDIO
    TITLE "2:cjc153_0599"
    INDEX 01 01:49:24
  TRACK 141 AUDIO
    TITLE "0:"
    INDEX 01 01:50:25
  TRACK 142 AUDIO
    TITLE "3:cjc153_0600"
    INDEX 01 01:50:53
  TRACK 143 AUDIO
    TITLE "0:"
    INDEX 01 01:51:56
  TRACK 144 AUDIO
    TITLE "2:cjc153_0601"
    INDEX 01 01:52:22
  TRACK 145 AUDIO
    TITLE "0:"
    INDEX 01 01:53:25
  TRACK 146 AUDIO
    TITLE "3:cjc153_0602"
    INDEX 01 01:53:51
  TRACK 147 AUDIO
    TITLE "0:"
    INDEX 01 01:54:62
  TRACK 148 AUDIO
    TITLE "2:cjc153_0603"
    INDEX 01 01:55:26
  TRACK 149 AUDIO
    TITLE "0:"
    INDEX 01 01:56:32
  TRACK 150 AUDIO
    TITLE "3:cjc153_0604"
    INDEX 01 01:56:57
  TRACK 151 AUDIO
    TITLE "0:"
    INDEX 01 01:57:70
  TRACK 152 AUDIO
    TITLE "2:cjc153_0605"
    INDEX 01 01:58:34
  TRACK 153 AUDIO
    TITLE "0:"
    INDEX 01 01:59:44
  TRACK 154 AUDIO
    TITLE "3:cjc153_0606"
    INDEX 01 01:59:71
  TRACK 155 AUDIO
    TITLE "0:"
    INDEX 01 02:01:11
  TRACK 156 AUDIO
    TITLE "2:cjc153_0607"
    INDEX 01 02:01:48
  TRACK 157 AUDIO
    TITLE "0:"
    INDEX 01 02:03:02
  TRACK 158 AUDIO
    TITLE "3:cjc153_0608"
    INDEX 01 02:03:30
  TRACK 159 AUDIO
    TITLE "0:"
    INDEX 01 02:04:62
  TRACK 160 AUDIO
    TITLE "2:cjc153_0609"
    INDEX 01 02:05:33
  TRACK 161 AUDIO
    TITLE "0:"
    INDEX 01 02:06:57
  TRACK 162 AUDIO
    TITLE "3:cjc153_0610"
    INDEX 01 02:07:06
  TRACK 163 AUDIO
    TITLE "0:"
    INDEX 01 02:08:35
  TRACK 164 AUDIO
    TITLE "2:cjc153_0611"
    INDEX 01 02:08:74
  TRACK 165 AUDIO
    TITLE "0:"
    INDEX 01 02:10:20
  TRACK 166 AUDIO
    TITLE "3:cjc153_0612"
    INDEX 01 02:10:43
  TRACK 167 AUDIO
    TITLE "0:"
    INDEX 01 02:11:72
  TRACK 168 AUDIO
    TITLE "2:cjc153_0613"
    INDEX 01 02:12:35
  TRACK 169 AUDIO
    TITLE "0:"
    INDEX 01 02:13:56
  TRACK 170 AUDIO
    TITLE "3:cjc153_0614"
    INDEX 01 02:14:04
  TRACK 171 AUDIO
    TITLE "0:"
    INDEX 01 02:15:23
